<svg width="163" height="30" fill="none" xmlns="http://www.w3.org/2000/svg"><path d="M11.797 1.847h3.272l11.452 27.45h-4.133l-2.67-6.775H6.888L4.22 29.296H0L11.797 1.848zm6.544 17.42l-4.995-12.58h-.086l-5.08 12.58h10.16zM43.226 0h3.444v18.915l7.75-7.918h4.735l-8.352 8.358 9.127 10.03h-4.822l-8.352-9.502v9.501h-3.444V0h-.086zM65.441 21.378c0 .792.172 1.496.517 2.2.344.704.775 1.231 1.377 1.671.517.44 1.206.792 1.895 1.056.775.264 1.464.352 2.239.352 1.033 0 1.98-.264 2.755-.792a9.266 9.266 0 002.153-2.023l2.583 2.023c-1.894 2.463-4.564 3.783-7.922 3.783-1.378 0-2.67-.264-3.875-.704-1.12-.528-2.152-1.143-2.927-2.023a9.027 9.027 0 01-1.809-3.08c-.43-1.143-.602-2.463-.602-3.782 0-1.32.258-2.64.688-3.783.431-1.144 1.12-2.2 1.895-3.08.86-.88 1.808-1.583 2.927-2.023 1.12-.528 2.412-.704 3.703-.704 1.55 0 2.928.264 4.047.88 1.12.528 1.98 1.32 2.67 2.2.688.88 1.205 1.935 1.55 3.079.344 1.143.516 2.287.516 3.519v1.231H65.44zm10.763-2.815c0-.792-.172-1.496-.344-2.111a4.008 4.008 0 00-.947-1.672c-.43-.44-.947-.88-1.636-1.144-.689-.264-1.378-.44-2.239-.44a6.45 6.45 0 00-2.325.44c-.689.352-1.291.704-1.722 1.232a4.7 4.7 0 00-1.12 1.76c-.258.615-.43 1.231-.43 1.847h10.763v.088zM83.093 20.059c0-1.32.258-2.552.775-3.783.517-1.144 1.205-2.2 2.067-3.08.86-.88 1.894-1.583 3.013-2.111 1.12-.528 2.411-.792 3.789-.792 1.378 0 2.583.264 3.789.792 1.119.528 2.152 1.232 3.013 2.111.861.88 1.55 1.936 2.067 3.08.517 1.143.775 2.375.775 3.783 0 1.407-.258 2.639-.775 3.783-.517 1.143-1.206 2.199-2.067 3.079a8.72 8.72 0 01-3.013 2.023c-1.12.528-2.411.792-3.79.792a9.151 9.151 0 01-3.788-.792c-1.12-.528-2.152-1.143-3.013-2.023-.862-.88-1.55-1.848-2.067-3.08-.517-1.143-.775-2.375-.775-3.782zm3.616 0c0 .967.173 1.76.431 2.551a5.241 5.241 0 001.206 2.023 6.13 6.13 0 001.894 1.32c.775.352 1.55.44 2.497.44.947 0 1.722-.176 2.497-.44a6.13 6.13 0 001.894-1.32c.517-.527.861-1.231 1.206-2.023.258-.792.43-1.672.43-2.551 0-.968-.172-1.76-.43-2.552a5.241 5.241 0 00-1.206-2.023 6.13 6.13 0 00-1.894-1.32 5.782 5.782 0 00-2.497-.528c-.947 0-1.722.176-2.497.528a6.13 6.13 0 00-1.894 1.32c-.517.528-.862 1.231-1.206 2.023-.258.792-.43 1.672-.43 2.552zM130.193 13.9V27.45a8.799 8.799 0 01-2.238 1.055c-.861.352-1.723.616-2.584.792-.861.176-1.808.352-2.755.44-.947.088-1.808.176-2.583.176-2.239 0-4.306-.352-6.114-1.144-1.808-.791-3.272-1.847-4.477-3.167a14.527 14.527 0 01-2.842-4.575 17.004 17.004 0 01-.947-5.542c0-2.024.344-3.96 1.033-5.719a14.526 14.526 0 012.842-4.574c1.205-1.32 2.669-2.288 4.391-3.08 1.722-.703 3.617-1.143 5.683-1.143 2.497 0 4.478.352 6.028.967a11.27 11.27 0 013.961 2.64l-2.584 2.815c-1.119-1.056-2.324-1.847-3.53-2.287-1.205-.44-2.497-.616-3.875-.616-1.55 0-2.927.264-4.133.88-1.205.615-2.325 1.32-3.186 2.375-.861.968-1.55 2.111-2.066 3.431-.517 1.32-.689 2.727-.689 4.223 0 1.584.258 2.991.775 4.31a10.212 10.212 0 002.238 3.432c.948.968 2.067 1.76 3.273 2.287 1.291.528 2.669.792 4.133.792 1.291 0 2.497-.088 3.616-.352 1.12-.264 2.153-.616 2.928-1.056v-7.654h-5.942v-3.519h9.644v.264zM136.824 1.847h3.616v27.45h-3.616V1.846zM148.104 23.578c.688.967 1.463 1.76 2.497 2.2 1.033.439 2.066.703 3.186.703.602 0 1.205-.088 1.894-.264a4.037 4.037 0 001.722-.88c.517-.352.947-.88 1.292-1.407.344-.528.516-1.232.516-1.936 0-1.056-.344-1.847-.947-2.463-.689-.528-1.464-1.056-2.411-1.408-.947-.352-2.066-.704-3.186-1.056-1.119-.352-2.239-.791-3.186-1.495-.947-.616-1.808-1.408-2.411-2.463-.689-1.056-.947-2.464-.947-4.223 0-.792.172-1.672.517-2.552.344-.88.861-1.76 1.636-2.463.775-.792 1.636-1.408 2.841-1.848 1.12-.527 2.497-.791 4.133-.791 1.464 0 2.842.176 4.22.615 1.377.44 2.497 1.232 3.53 2.552l-3.186 2.64c-.431-.705-1.119-1.32-1.894-1.76-.861-.44-1.809-.616-2.842-.616-1.033 0-1.808.176-2.497.44a4.436 4.436 0 00-1.636 1.055c-.431.44-.689.88-.861 1.408-.172.352-.258.88-.258 1.232 0 1.143.344 2.023.947 2.639.603.616 1.464 1.144 2.411 1.495.947.352 2.066.704 3.186 1.056 1.119.352 2.239.704 3.186 1.32a6.727 6.727 0 012.411 2.287c.689.968.947 2.2.947 3.871 0 1.32-.258 2.464-.775 3.52-.517 1.055-1.119 1.935-1.981 2.639-.861.703-1.808 1.32-2.927 1.671-1.12.352-2.325.616-3.617.616-1.722 0-3.358-.352-4.908-.968-1.55-.616-2.755-1.583-3.702-2.903l3.1-2.463zM32.635 29.208h-3.53v-9.853c0-.088-.087-3.871 2.496-6.598 1.808-1.936 4.392-2.904 7.578-2.904v3.607c-2.24 0-3.961.616-5.08 1.76-1.55 1.671-1.55 4.047-1.55 4.135l.086 9.853z" fill="#fff"/></svg>